<?xml version="1.0" encoding="UTF-8"?>
<svg id="Capa_1" xmlns="http://www.w3.org/2000/svg" xmlns:xlink="http://www.w3.org/1999/xlink" version="1.1" viewBox="0 0 488.49 134.97">
  <!-- Generator: Adobe Illustrator 30.5.1, SVG Export Plug-In . SVG Version: 2.1.4 Build 3)  -->
  <defs>
    <style>
      .st0 {
        fill: #fff;
        opacity: .14;
      }

      .st1 {
        fill: url(#Degradado_sin_nombre_2272);
      }

      .st2 {
        fill: url(#Degradado_sin_nombre_2271);
      }

      .st3 {
        fill: url(#Degradado_sin_nombre_2273);
      }

      .st4 {
        fill: #565656;
      }

      .st5 {
        fill: url(#Degradado_sin_nombre_227);
      }

      .st6 {
        fill: url(#Degradado_sin_nombre_235);
      }
    </style>
    <linearGradient id="Degradado_sin_nombre_235" data-name="Degradado sin nombre 235" x1="0" y1="107.66" x2="85.42" y2="107.66" gradientUnits="userSpaceOnUse">
      <stop offset="0" stop-color="#00a0d9"/>
      <stop offset="1" stop-color="#0ca2c8"/>
    </linearGradient>
    <linearGradient id="Degradado_sin_nombre_227" data-name="Degradado sin nombre 227" x1="-11.46" y1="67.06" x2="68.92" y2="-13.32" gradientUnits="userSpaceOnUse">
      <stop offset="0" stop-color="#00a0d9"/>
      <stop offset="1" stop-color="#9d69a3"/>
    </linearGradient>
    <linearGradient id="Degradado_sin_nombre_2271" data-name="Degradado sin nombre 227" x1="78.92" y1="104.76" x2="153.42" y2="30.26" xlink:href="#Degradado_sin_nombre_227"/>
    <linearGradient id="Degradado_sin_nombre_2272" data-name="Degradado sin nombre 227" x1="-15.75" y1="62.77" x2="64.63" y2="-17.61" xlink:href="#Degradado_sin_nombre_227"/>
    <linearGradient id="Degradado_sin_nombre_2273" data-name="Degradado sin nombre 227" x1="58.08" y1="83.92" x2="132.58" y2="9.42" xlink:href="#Degradado_sin_nombre_227"/>
  </defs>
  <g>
    <path class="st4" d="M191.99,60.51l-14.53,13.87v13.24h-11.64V21.18h11.64v39.51l41.37-39.51h14.35l-34.84,33.24,34.84,33.2h-12.84l-28.35-27.11Z"/>
    <path class="st4" d="M253.72,87.62h-11.64V21.18h11.64v66.44Z"/>
    <path class="st4" d="M336.87,87.62h-15.69l-46.93-55.42v55.42h-11.64V21.18h15.64l46.97,55.42V21.18h11.64v66.44Z"/>
    <path class="st4" d="M388.68,87.62h-11.64V30.87h-31.29v-9.69h74.26v9.69h-31.33v56.75Z"/>
    <polygon class="st4" points="455.3 21.18 442.14 21.18 408.9 87.62 421.03 87.62 448.72 30.74 476.36 87.62 488.49 87.62 455.3 21.18"/>
  </g>
  <g>
    <path class="st6" d="M0,107.37v7.5c0,11.05,9.04,20.1,20.1,20.1h65.32l-57.11-54.61L0,107.37Z"/>
    <path class="st5" d="M0,78.52l29.95-28.6C10.7,42.18,0,31.33,0,31.33v47.2Z"/>
    <path class="st2" d="M53.42,56.35l-11.72,11.19,70.78,67.44h2.4c11.05,0,20.1-9.04,20.1-20.1V39.26s-21.83,18.3-65.5,18.3c-5.66,0-11.01-.45-16.05-1.21Z"/>
    <path class="st1" d="M20.1,0C9.04,0,0,9.04,0,20.1v11.23s10.7,10.86,29.95,18.6L82.23,0H20.1Z"/>
    <path class="st0" d="M20.1,0C9.04,0,0,9.04,0,20.1v11.23s10.7,10.86,29.95,18.6L82.23,0H20.1Z"/>
    <path class="st3" d="M114.87,0h-2.39l-59.06,56.35c5.04.77,10.39,1.21,16.05,1.21,43.67,0,65.5-18.3,65.5-18.3v-19.17c0-11.05-9.04-20.1-20.1-20.1Z"/>
    <path class="st0" d="M114.87,0h-2.39l-59.06,56.35c5.04.77,10.39,1.21,16.05,1.21,43.67,0,65.5-18.3,65.5-18.3v-19.17c0-11.05-9.04-20.1-20.1-20.1Z"/>
  </g>
  <g>
    <path class="st4" d="M172.25,110.91h-1.75v-8.51h-4.69v-1.45h11.13v1.45h-4.7v8.51Z"/>
    <path class="st4" d="M188.44,110.91h-8.79v-9.96h8.79v1.45h-7.04v2.81h5.87v1.45h-5.87v2.8h7.04v1.45Z"/>
    <path class="st4" d="M196.7,111.21c-1.24,0-2.33-.23-3.27-.69-.94-.46-1.67-1.09-2.19-1.88-.52-.79-.78-1.69-.78-2.69s.26-1.91.77-2.7c.51-.79,1.23-1.42,2.15-1.88.92-.46,1.99-.69,3.21-.69.8,0,1.63.18,2.49.54s1.47.74,1.84,1.16l-1.08,1.23c-.2-.25-.61-.53-1.23-.83s-1.31-.45-2.06-.45c-.82,0-1.56.14-2.23.43s-1.19.7-1.58,1.25c-.39.55-.59,1.2-.59,1.97s.2,1.42.59,1.97c.39.55.92.96,1.58,1.25s1.4.43,2.23.43c.6,0,1.23-.13,1.88-.38.65-.25,1.12-.55,1.4-.89l1.08,1.22c-.51.49-1.13.89-1.88,1.2-.75.31-1.52.47-2.32.47Z"/>
    <path class="st4" d="M214.75,110.91h-1.75v-4.25h-7.64v4.25h-1.75v-9.96h1.75v4.26h7.64v-4.26h1.75v9.96Z"/>
    <path class="st4" d="M235.08,110.91h-1.82l-1.14-2.35h-6.01l-1.15,2.35h-1.82l4.98-9.96h1.97l4.98,9.96ZM231.41,107.12l-2.3-4.73-2.3,4.73h4.6Z"/>
    <path class="st4" d="M248.9,110.91h-2.35l-7.04-8.31v8.31h-1.75v-9.96h2.35l7.04,8.31v-8.31h1.75v9.96Z"/>
    <path class="st4" d="M257.16,110.91h-5.56v-9.96h5.56c1.04,0,1.97.21,2.82.62.84.42,1.51.99,2.01,1.74s.74,1.62.74,2.63-.25,1.88-.74,2.62c-.5.75-1.17,1.32-2.01,1.74-.84.41-1.78.62-2.82.62ZM257.16,109.46c.7,0,1.34-.14,1.92-.43s1.04-.7,1.39-1.23c.35-.53.52-1.15.52-1.86s-.17-1.34-.52-1.87c-.35-.53-.81-.94-1.39-1.23s-1.22-.43-1.92-.43h-3.82v7.06h3.82Z"/>
    <path class="st4" d="M277.28,111.21c-1.14,0-2.17-.23-3.1-.69-.93-.46-1.67-1.09-2.22-1.88s-.82-1.69-.82-2.69.27-1.9.82-2.69c.55-.79,1.29-1.42,2.22-1.89.93-.47,1.97-.7,3.1-.7s2.18.23,3.11.7c.93.46,1.67,1.09,2.22,1.89.55.79.82,1.69.82,2.69s-.27,1.9-.82,2.69c-.55.79-1.29,1.42-2.22,1.88s-1.97.69-3.11.69ZM277.28,109.58c.76,0,1.47-.14,2.14-.42.67-.28,1.21-.69,1.64-1.24.42-.55.63-1.21.63-1.98s-.21-1.44-.63-1.99c-.42-.55-.97-.96-1.64-1.24-.67-.28-1.38-.42-2.14-.42s-1.47.14-2.14.42-1.21.7-1.63,1.25c-.42.55-.63,1.21-.63,1.98s.21,1.43.63,1.97c.42.55.97.96,1.63,1.24s1.38.42,2.14.42Z"/>
    <path class="st4" d="M287.88,110.91h-1.74v-9.96h6.14c.7,0,1.3.14,1.8.42.5.28.89.66,1.16,1.14.27.48.41,1.04.41,1.67,0,.94-.31,1.71-.94,2.31-.62.6-1.44.91-2.44.91h-4.39v3.52ZM292.27,105.94c.47,0,.86-.16,1.17-.47s.46-.75.46-1.29-.17-.99-.5-1.3c-.33-.31-.71-.47-1.14-.47h-4.39v3.54h4.39Z"/>
    <path class="st4" d="M302.83,111.21c-.76,0-1.46-.09-2.12-.27-.65-.18-1.22-.42-1.71-.71s-.82-.54-1-.74l1.07-1.17c.05.06.26.22.63.47s.81.48,1.34.68,1.12.29,1.78.29c.63,0,1.19-.09,1.69-.28.5-.19.91-.43,1.22-.71.32-.29.48-.58.48-.87,0-.37-.16-.64-.47-.79-.31-.15-.68-.25-1.1-.3-.42-.05-.88-.09-1.38-.12-.47-.02-.94-.06-1.43-.11s-.95-.13-1.39-.25c-.44-.11-.83-.27-1.16-.48-.33-.21-.6-.48-.79-.82-.19-.34-.29-.77-.29-1.31s.18-1,.54-1.46.88-.85,1.58-1.15,1.53-.45,2.5-.45c.76,0,1.43.08,2.01.25.58.16,1.09.38,1.52.64.43.26.73.48.89.66l-1.08,1.08c-.12-.11-.34-.27-.66-.47-.31-.2-.68-.37-1.11-.5s-.94-.19-1.54-.19c-.77,0-1.48.16-2.15.47s-1,.69-1,1.13c0,.4.17.69.51.87.34.18.74.3,1.2.37s.97.13,1.51.18c.58.05,1.16.12,1.74.21.59.09,1.11.23,1.58.41.47.19.84.44,1.12.78s.41.78.41,1.35-.19,1.1-.57,1.6c-.38.5-.94.91-1.68,1.24s-1.65.48-2.72.48Z"/>
    <path class="st4" d="M328.12,110.91h-1.82l-1.14-2.35h-6.01l-1.15,2.35h-1.82l4.98-9.96h1.97l4.98,9.96ZM324.45,107.12l-2.3-4.73-2.3,4.73h4.6Z"/>
    <path class="st4" d="M336.37,110.91h-5.56v-9.96h5.56c1.03,0,1.97.21,2.82.62.84.42,1.51.99,2.01,1.74s.74,1.62.74,2.63-.25,1.88-.74,2.62c-.5.75-1.17,1.32-2.01,1.74-.84.41-1.78.62-2.82.62ZM336.37,109.46c.7,0,1.34-.14,1.92-.43.58-.29,1.04-.7,1.39-1.23.35-.53.52-1.15.52-1.86s-.17-1.34-.52-1.87c-.35-.53-.81-.94-1.39-1.23-.58-.29-1.22-.43-1.92-.43h-3.82v7.06h3.82Z"/>
    <path class="st4" d="M350.4,110.91h-1.97l-4.98-9.96h2.06l3.94,8.5,4.17-8.5h1.77l-4.98,9.96Z"/>
    <path class="st4" d="M359.81,110.91h-1.74v-9.96h1.74v9.96Z"/>
    <path class="st4" d="M367.19,111.21c-.76,0-1.46-.09-2.12-.27-.65-.18-1.22-.42-1.71-.71s-.82-.54-1-.74l1.07-1.17c.05.06.26.22.63.47s.81.48,1.34.68,1.12.29,1.78.29c.63,0,1.19-.09,1.69-.28.5-.19.91-.43,1.22-.71.32-.29.48-.58.48-.87,0-.37-.16-.64-.47-.79-.31-.15-.68-.25-1.1-.3-.42-.05-.88-.09-1.38-.12-.47-.02-.94-.06-1.43-.11s-.95-.13-1.39-.25c-.44-.11-.83-.27-1.16-.48-.33-.21-.6-.48-.79-.82-.19-.34-.29-.77-.29-1.31s.18-1,.54-1.46.88-.85,1.58-1.15,1.53-.45,2.5-.45c.76,0,1.43.08,2.01.25.58.16,1.09.38,1.52.64.43.26.73.48.89.66l-1.08,1.08c-.12-.11-.34-.27-.66-.47-.31-.2-.68-.37-1.11-.5s-.94-.19-1.54-.19c-.77,0-1.48.16-2.15.47s-1,.69-1,1.13c0,.4.17.69.51.87.34.18.74.3,1.2.37s.97.13,1.51.18c.58.05,1.16.12,1.74.21.59.09,1.11.23,1.58.41.47.19.84.44,1.12.78s.41.78.41,1.35-.19,1.1-.57,1.6c-.38.5-.94.91-1.68,1.24s-1.65.48-2.72.48Z"/>
    <path class="st4" d="M381,111.21c-1.14,0-2.17-.23-3.1-.69-.93-.46-1.67-1.09-2.22-1.88s-.82-1.69-.82-2.69.27-1.9.82-2.69c.55-.79,1.29-1.42,2.22-1.89.93-.47,1.97-.7,3.1-.7s2.18.23,3.11.7c.93.46,1.67,1.09,2.22,1.89.55.79.82,1.69.82,2.69s-.27,1.9-.82,2.69c-.55.79-1.29,1.42-2.22,1.88s-1.97.69-3.11.69ZM381,109.58c.76,0,1.47-.14,2.14-.42.67-.28,1.21-.69,1.64-1.24.42-.55.63-1.21.63-1.98s-.21-1.44-.63-1.99c-.42-.55-.97-.96-1.64-1.24-.67-.28-1.38-.42-2.14-.42s-1.47.14-2.14.42-1.21.7-1.63,1.25c-.42.55-.63,1.21-.63,1.98s.21,1.43.63,1.97c.42.55.97.96,1.63,1.24s1.38.42,2.14.42Z"/>
    <path class="st4" d="M399.56,110.91h-1.97l-2.1-3.52h-3.89v3.52h-1.74v-9.96h6.14c.7,0,1.3.14,1.8.42.5.28.89.66,1.16,1.14.27.48.41,1.04.41,1.67s-.16,1.24-.48,1.74-.86.93-1.62,1.29l2.27,3.7ZM396,105.94c.47,0,.86-.16,1.17-.47s.46-.75.46-1.29-.17-.99-.5-1.3c-.33-.31-.71-.47-1.14-.47h-4.39v3.54h4.39Z"/>
    <path class="st4" d="M407.86,110.91h-1.74v-5.1l-4.86-4.86h2.09l3.64,3.49,3.64-3.49h2.09l-4.86,4.86v5.1Z"/>
  </g>
</svg>